<svg xmlns="http://www.w3.org/2000/svg" version="1.1" xmlns:xlink="http://www.w3.org/1999/xlink" xmlns:svgjs="http://svgjs.com/svgjs" width="1440" height="560" preserveAspectRatio="none" viewBox="0 0 1440 560">
    <g mask="url(&quot;#SvgjsMask1145&quot;)" fill="none">
        <path d="M -170.20440060732554,209 C -98.2,250.4 45.8,407.6 189.79559939267446,416 C 333.8,424.4 405.8,276.8 549.7955993926745,251 C 693.8,225.2 765.8,282.8 909.7955993926745,287 C 1053.8,291.2 1125.8,267.2 1269.7955993926744,272 C 1413.8,276.8 1595.75,321.8 1629.7955993926744,311 C 1663.84,300.2 1477.96,236.6 1440,218" stroke="rgba(0, 0, 0, 0.2)" stroke-width="2"></path>
        <path d="M -710.7031597179566,120 C -638.7,162.8 -494.7,309 -350.7031597179567,334 C -206.7,359 -134.7,247.2 9.29684028204332,245 C 153.3,242.8 225.3,321.2 369.2968402820433,323 C 513.3,324.8 585.3,238.4 729.2968402820434,254 C 873.3,269.6 947.16,406.4 1089.2968402820434,401 C 1231.44,395.6 1369.86,261.8 1440,227" stroke="rgba(0, 0, 0, 0.2)" stroke-width="2"></path>
        <path d="M -591.5128351013133,380 C -519.51,342.4 -375.51,190.6 -231.51283510131327,192 C -87.51,193.4 -15.51,385 128.48716489868673,387 C 272.49,389 344.49,207.2 488.48716489868673,202 C 632.49,196.8 704.49,366 848.4871648986867,361 C 992.49,356 1090.18,186.4 1208.4871648986868,177 C 1326.79,167.6 1393.7,286.6 1440,314" stroke="rgba(0, 0, 0, 0.2)" stroke-width="2"></path>
        <path d="M -109.05324582139687,116 C -37.05,178.2 106.95,399.4 250.94675417860313,427 C 394.95,454.6 466.95,252 610.9467541786031,254 C 754.95,256 826.95,450.2 970.9467541786031,437 C 1114.95,423.8 1186.95,216 1330.9467541786032,188 C 1474.95,160 1669.14,293.2 1690.9467541786032,297 C 1712.76,300.8 1490.19,225 1440,207" stroke="rgba(0, 0, 0, 0.2)" stroke-width="2"></path>
    </g>
    <defs>
        <mask id="SvgjsMask1145">
            <rect width="1440" height="560" fill="#ffffff"></rect>
        </mask>
    </defs>
</svg>